<?xml version="1.0" standalone="no"?>
<!DOCTYPE svg PUBLIC "-//W3C//DTD SVG 20010904//EN"
 "http://www.w3.org/TR/2001/REC-SVG-20010904/DTD/svg10.dtd">
<svg version="1.0" xmlns="http://www.w3.org/2000/svg"
 width="400.000000pt" height="400.000000pt" viewBox="0 0 400.000000 400.000000"
 preserveAspectRatio="xMidYMid meet">

<g transform="translate(0.000000,400.000000) scale(0.100000,-0.100000)"
fill="#000000" stroke="none">
<path d="M1870 3994 c-622 -45 -1186 -374 -1535 -894 -78 -117 -184 -333 -229
-469 -239 -720 -53 -1505 484 -2041 540 -540 1324 -725 2049 -484 137 45 354
151 471 230 478 321 795 822 875 1386 20 138 19 421 -1 557 -62 424 -242 790
-539 1100 -308 320 -680 517 -1115 590 -114 20 -355 32 -460 25z m109 -128
c93 -49 91 -215 -4 -260 -44 -21 -101 -17 -141 9 -50 33 -70 135 -39 196 32
61 121 87 184 55z m-359 -29 c0 -2 20 -60 44 -130 l45 -125 -30 -11 c-34 -12
-35 -10 -70 99 l-24 75 -5 -100 c-5 -99 -5 -100 -31 -103 -23 -3 -32 6 -73 75
-25 43 -46 74 -46 68 1 -5 9 -46 20 -90 19 -83 17 -95 -23 -95 -21 0 -18 -7
-51 145 -14 65 -22 122 -18 126 4 4 23 10 43 14 l36 7 46 -78 46 -77 3 94 c3
90 4 93 28 100 28 8 60 11 60 6z m889 -28 c29 -10 31 -14 31 -57 0 -70 10 -75
50 -26 29 34 40 41 60 37 46 -10 43 -21 -24 -83 -53 -50 -69 -72 -83 -116 -18
-58 -20 -60 -57 -43 -24 11 -24 12 -9 53 14 40 14 90 -3 204 -7 47 -9 46 35
31z m-1301 -145 c2 -16 -6 -24 -38 -37 -31 -12 -41 -21 -38 -34 3 -15 14 -18
67 -19 57 -1 67 -4 88 -28 30 -35 29 -67 -2 -105 -33 -39 -113 -71 -126 -50
-17 27 -10 49 15 49 33 0 71 32 63 53 -5 13 -20 17 -67 17 -70 0 -100 21 -100
71 0 43 15 66 58 89 46 24 76 22 80 -6z m-199 -235 l81 -111 -26 -20 c-14 -12
-29 -17 -33 -12 -19 21 -143 197 -148 210 -5 13 21 43 39 44 4 0 43 -50 87
-111z m2148 40 c28 -10 93 -67 93 -81 0 -4 -9 -12 -21 -19 -17 -9 -23 -7 -35
9 -7 10 -27 25 -44 32 -56 23 -120 -24 -120 -89 0 -27 19 -53 63 -84 16 -11
16 -14 3 -32 -15 -20 -15 -20 -51 0 -47 25 -85 80 -85 123 0 47 35 105 79 130
40 24 76 27 118 11z m-887 -24 c874 -169 1404 -1053 1134 -1890 -71 -219 -192
-415 -363 -585 -214 -214 -452 -342 -752 -407 -120 -26 -448 -26 -569 0 -609
130 -1071 612 -1166 1215 -24 155 -15 408 19 552 147 615 660 1065 1292 1134
78 8 321 -3 405 -19z m-1410 -130 l95 -95 -26 -26 -26 -26 -87 26 c-47 15 -94
29 -104 33 -9 3 14 -25 51 -64 l68 -69 -21 -19 c-21 -19 -22 -18 -120 80
l-100 99 22 23 c27 29 44 29 142 -1 l79 -25 -56 57 c-32 32 -57 62 -57 68 0
13 21 34 35 34 6 0 53 -43 105 -95z m2512 -32 c10 -9 18 -19 18 -22 0 -4 -45
-49 -100 -100 -99 -91 -101 -93 -121 -75 -11 10 -18 23 -17 28 4 14 184 186
194 186 4 0 16 -7 26 -17z m164 -204 c47 -68 48 -71 29 -85 -26 -19 -27 -19
-55 26 -28 45 -29 45 -55 26 -19 -13 -18 -15 9 -55 28 -40 29 -42 10 -56 -21
-16 -34 -19 -34 -7 0 4 -12 22 -27 40 -28 31 -28 32 -51 14 l-23 -18 31 -43
c25 -34 29 -45 19 -57 -6 -8 -17 -14 -23 -14 -12 0 -106 123 -106 138 1 5 218
162 225 162 1 0 24 -32 51 -71z m-2935 -45 c68 -20 126 -38 128 -40 2 -2 -4
-15 -13 -29 -14 -21 -23 -25 -58 -23 -36 3 -44 -1 -57 -23 -13 -24 -13 -29 7
-56 19 -27 20 -32 6 -51 -8 -12 -19 -22 -23 -22 -7 0 -157 178 -175 208 -9 14
29 72 48 72 7 0 68 -16 137 -36z m3079 -194 c12 -29 11 -33 -48 -110 l-60 -78
80 36 c66 29 81 33 89 21 21 -34 8 -45 -108 -97 -65 -29 -123 -52 -128 -52 -6
0 -16 13 -21 29 -12 31 -9 37 78 143 21 26 38 49 38 52 0 4 -37 -12 -82 -35
-77 -39 -83 -40 -95 -23 -7 10 -13 23 -13 30 0 12 240 125 251 118 4 -2 12
-17 19 -34z m-3252 -81 c122 -41 124 -42 117 -68 -4 -14 -8 -28 -10 -30 -2 -2
-46 11 -97 28 -51 17 -86 25 -77 18 150 -118 148 -117 130 -146 -7 -11 -26
-13 -90 -7 -44 3 -88 9 -98 11 -21 6 42 -25 110 -55 47 -20 57 -39 38 -68 -6
-10 -36 0 -132 44 -68 31 -125 57 -127 59 -2 1 5 21 14 44 13 33 20 40 38 37
50 -11 160 -16 151 -8 -5 4 -36 28 -68 51 -32 24 -60 47 -62 51 -7 11 18 80
29 80 6 0 66 -18 134 -41z m3352 -278 c34 -23 71 -99 68 -136 -2 -25 -8 -30
-28 -30 -19 0 -26 6 -28 25 -9 78 -53 111 -117 90 -20 -6 -43 -23 -52 -37 -14
-21 -15 -31 -4 -70 13 -51 14 -48 -15 -57 -16 -5 -23 0 -32 18 -30 67 -23 144
18 181 49 45 139 53 190 16z m-3540 -116 c121 -14 161 -38 174 -101 9 -41 -14
-97 -49 -120 -22 -14 -40 -16 -113 -10 -120 8 -132 13 -132 45 0 15 2 30 5 32
2 3 46 -1 97 -8 107 -16 138 -9 138 32 0 35 -32 51 -132 65 -74 10 -88 15 -88
30 0 32 12 51 29 46 9 -2 41 -7 71 -11z m3630 -209 l0 -33 -107 -7 c-60 -4
-123 -9 -140 -13 -32 -5 -33 -4 -33 30 l0 35 78 7 c42 3 86 7 97 9 11 2 39 4
63 5 41 1 42 0 42 -33z m-57 -216 l57 -21 0 -45 c0 -39 -3 -44 -27 -50 -16 -3
-79 -19 -141 -34 -61 -15 -114 -24 -117 -20 -3 4 -2 21 1 38 5 25 12 31 40 37
32 5 34 9 34 44 0 34 -4 40 -30 50 -26 8 -30 15 -30 45 l0 35 78 -28 c42 -16
103 -39 135 -51z m-3423 41 c0 -33 -14 -41 -71 -41 l-40 0 3 -47 3 -48 58 3
57 2 0 -34 0 -34 -117 -7 c-65 -3 -127 -7 -138 -8 -16 -2 -21 5 -23 31 -3 28
0 32 21 32 14 0 37 3 53 6 28 5 29 8 26 53 l-4 48 -54 -5 -54 -4 0 35 0 36 68
4 c37 2 100 4 140 5 l72 2 0 -29z m59 -597 c26 -34 26 -54 0 -88 -40 -51 -129
-23 -129 41 0 67 88 99 129 47z m3221 6 c24 -24 26 -77 3 -102 -24 -27 -87
-24 -107 4 -36 51 -5 118 54 118 17 0 39 -9 50 -20z m-2933 -381 c37 -18 93
-78 93 -100 0 -3 -11 -11 -25 -17 -22 -10 -26 -9 -40 18 -36 70 -127 66 -164
-8 -15 -28 -6 -59 26 -93 21 -23 23 -30 14 -48 -15 -28 -22 -27 -58 12 -42 44
-53 69 -53 116 0 63 78 139 144 141 11 0 39 -9 63 -21z m2688 -49 c100 -39
105 -44 77 -72 -20 -20 -25 -21 -54 -10 -30 11 -35 10 -58 -13 -24 -25 -25
-25 -6 -59 17 -32 17 -35 0 -60 -9 -15 -20 -23 -24 -19 -4 4 -42 59 -84 120
l-77 113 26 34 27 35 46 -18 c26 -11 83 -33 127 -51z m-283 -265 c44 -119 46
-130 31 -147 -32 -36 -48 -31 -167 48 -64 42 -116 80 -116 83 0 3 12 14 26 24
25 19 25 19 87 -24 34 -23 72 -51 85 -62 12 -11 22 -18 22 -16 0 3 -16 44 -35
92 -19 48 -35 92 -35 98 0 14 31 39 44 36 5 -2 31 -61 58 -132z m-2142 70 c66
-34 90 -116 55 -184 -49 -96 -159 -115 -231 -40 -25 26 -29 38 -29 84 0 39 6
61 21 82 49 67 123 90 184 58z m314 -200 c93 -43 96 -46 85 -67 -6 -13 -13
-24 -14 -26 -2 -2 -17 4 -35 13 -18 9 -33 15 -35 13 -2 -2 -24 -47 -49 -101
l-45 -98 -30 15 -30 16 45 95 c47 102 51 115 31 115 -7 0 -21 6 -31 13 -15 11
-17 17 -7 35 6 12 13 22 15 22 2 0 47 -20 100 -45z m1474 -5 c66 -40 95 -126
65 -188 -33 -67 -109 -98 -176 -73 -39 15 -79 75 -85 128 -12 111 103 189 196
133z m-1178 -100 c79 -20 80 -20 80 -47 0 -24 -2 -25 -37 -19 -76 13 -78 13
-78 -14 0 -21 6 -26 43 -34 35 -7 42 -13 42 -32 0 -31 -9 -35 -59 -22 -35 9
-45 8 -52 -3 -19 -30 -10 -48 29 -55 55 -10 71 -21 65 -44 -3 -11 -12 -20 -20
-20 -20 0 -147 32 -155 39 -4 3 6 60 23 126 38 152 36 147 56 141 10 -3 38
-10 63 -16z m805 -22 c10 -45 45 -233 45 -244 0 -7 -14 -14 -31 -16 -29 -5
-37 2 -97 73 -37 43 -67 77 -69 76 -1 -2 5 -40 14 -85 9 -45 14 -84 12 -86 -2
-2 -15 -6 -29 -8 -24 -3 -26 0 -53 131 -15 74 -26 135 -25 137 2 1 19 5 39 9
36 7 38 5 95 -64 32 -39 59 -69 61 -67 2 2 -4 36 -12 76 -12 59 -13 75 -3 82
24 15 48 8 53 -14z m-374 -37 c4 -3 3 -16 -1 -27 -7 -19 -14 -21 -53 -17 -39
5 -49 2 -71 -20 -28 -28 -35 -81 -16 -116 12 -24 60 -43 96 -39 25 3 29 -1 32
-24 3 -28 3 -28 -56 -28 -97 0 -152 49 -152 138 0 72 29 113 97 138 36 13 110
10 124 -5z"/>
<path d="M1871 3804 c-27 -34 -28 -103 -3 -134 20 -25 63 -30 87 -10 35 29 25
138 -15 160 -30 16 -47 12 -69 -16z"/>
<path d="M845 2868 c-75 -211 -249 -708 -253 -720 -3 -14 2 -18 27 -18 l31 0
0 -119 0 -119 243 -4 c276 -4 301 -10 363 -82 33 -38 37 -40 48 -22 56 92 83
99 383 104 l242 4 3 116 3 117 28 3 c15 2 27 4 27 5 0 1 -58 169 -129 372
l-129 370 -143 3 c-167 3 -215 -7 -267 -55 l-35 -34 -31 30 c-51 50 -101 61
-263 61 -106 0 -145 -3 -148 -12z m335 -35 c25 -11 58 -34 73 -52 l27 -33 0
-334 c0 -185 -4 -334 -9 -334 -5 0 -14 6 -20 14 -6 8 -35 24 -64 37 -49 21
-68 23 -305 27 -182 3 -252 8 -249 16 81 238 233 665 241 675 17 22 247 10
306 -16z m527 15 c5 -7 60 -157 121 -333 60 -176 113 -328 117 -337 7 -17 -9
-18 -242 -18 -271 0 -318 -7 -363 -56 -13 -13 -27 -24 -32 -24 -4 0 -8 149 -8
331 0 319 1 333 21 366 38 61 100 81 265 82 79 1 114 -3 121 -11z m193 -763
l0 -45 -193 0 c-258 0 -332 -14 -399 -78 -16 -14 -28 -20 -28 -14 0 20 -77 64
-137 78 -39 9 -126 14 -260 14 l-203 0 0 40 0 41 243 -3 244 -3 41 -27 c23
-16 50 -44 60 -64 l19 -37 29 43 c35 52 70 79 115 90 19 4 132 8 252 9 l217 1
0 -45z m-703 -108 c18 -9 45 -33 60 -52 15 -19 31 -35 35 -35 3 0 15 16 27 36
14 23 37 43 68 57 44 20 67 22 281 25 l232 4 0 -46 0 -46 -193 0 c-257 0 -332
-14 -399 -78 -24 -22 -28 -23 -34 -8 -10 26 -83 63 -148 75 -33 6 -147 11
-253 11 l-193 0 0 38 c0 21 2 41 4 43 2 2 112 2 243 -1 202 -4 243 -8 270 -23z"/>
<path d="M2266 2872 c-13 -21 -256 -735 -252 -740 3 -2 16 -5 28 -6 22 -1 23
-4 26 -118 l3 -116 242 -4 c242 -3 242 -3 299 -31 39 -19 61 -37 70 -57 16
-37 30 -38 48 -4 8 14 26 34 40 43 56 39 91 45 335 50 l240 6 3 117 3 117 27
3 c18 2 26 8 24 18 -2 8 -60 176 -129 373 l-126 357 -142 0 c-160 0 -214 -13
-266 -61 l-32 -30 -31 30 c-54 53 -90 61 -255 61 -82 0 -152 -4 -155 -8z m339
-36 c17 -8 43 -28 58 -45 l27 -33 0 -341 0 -340 -22 20 c-61 56 -74 58 -355
61 -145 2 -263 4 -263 6 0 4 209 606 227 655 l17 44 140 -8 c77 -3 154 -12
171 -19z m638 -313 c63 -181 118 -335 122 -344 6 -15 -19 -17 -247 -23 -139
-4 -269 -12 -288 -18 -19 -5 -52 -23 -72 -40 l-38 -29 0 340 0 339 27 33 c48
56 90 69 244 69 l136 0 116 -327z m-636 -416 c33 -17 74 -66 87 -102 8 -22 8
-22 60 51 39 55 79 63 332 64 l229 2 3 -41 3 -41 -194 0 c-106 0 -220 -5 -253
-11 -61 -11 -137 -48 -152 -75 -7 -13 -13 -11 -40 14 -60 56 -103 65 -354 70
l-228 4 0 38 0 39 68 4 c37 2 144 3 237 3 139 -2 176 -5 202 -19z m5 -129 c40
-19 59 -34 69 -57 8 -17 18 -31 24 -31 5 0 23 16 39 36 53 67 83 73 342 74
l229 2 3 -41 3 -41 -194 0 c-106 0 -220 -5 -253 -11 -61 -11 -137 -48 -152
-75 -7 -13 -13 -11 -40 14 -60 56 -103 64 -354 70 l-228 4 0 39 0 38 108 4
c59 2 161 3 228 2 105 -2 127 -5 176 -27z"/>
<path d="M684 1772 c10 -56 61 -153 98 -188 30 -28 41 -32 115 -38 l82 -6 -13
32 c-8 18 -17 55 -21 81 -9 55 -13 59 -168 118 l-99 37 6 -36z m97 -78 c18
-20 57 -48 84 -62 36 -19 45 -27 32 -30 -29 -6 -136 69 -158 111 -16 28 5 19
42 -19z"/>
<path d="M3209 1769 c-144 -54 -153 -61 -166 -127 -7 -32 -15 -67 -19 -79 -6
-23 -6 -23 72 -17 66 6 84 11 107 33 36 32 72 94 93 154 25 75 21 77 -87 36z
m51 -48 c0 -13 -84 -87 -120 -106 -17 -9 -39 -15 -48 -13 -11 2 0 12 31 28 26
13 64 41 85 62 37 37 52 46 52 29z"/>
<path d="M963 1680 c10 -124 58 -199 159 -249 34 -17 67 -31 74 -31 8 0 0 24
-22 66 -22 43 -34 80 -34 107 -1 47 -26 81 -106 142 -69 53 -78 49 -71 -35z
m81 -48 c13 -27 43 -71 65 -100 47 -59 55 -94 10 -42 -45 52 -88 116 -105 155
-22 53 2 42 30 -13z"/>
<path d="M2980 1733 c-60 -39 -120 -107 -125 -143 -10 -64 -26 -113 -51 -152
-30 -47 -17 -50 59 -12 104 52 152 124 165 249 9 83 3 91 -48 58z m10 -61 c0
-30 -141 -225 -148 -204 -2 6 18 37 44 69 26 32 56 77 66 100 17 38 38 57 38
35z"/>
<path d="M1160 1616 c0 -76 3 -91 33 -148 32 -62 33 -63 83 -69 27 -4 60 -10
73 -14 21 -6 23 -5 16 11 -4 11 -11 54 -14 96 -6 73 -8 80 -46 119 -33 34
-119 89 -140 89 -3 0 -5 -38 -5 -84z m104 -100 c38 -73 42 -97 8 -49 -21 30
-62 108 -62 118 0 21 23 -9 54 -69z"/>
<path d="M2765 1671 c-27 -16 -66 -45 -85 -65 -32 -34 -35 -43 -41 -114 -3
-42 -10 -85 -14 -96 -7 -16 -5 -17 16 -11 13 4 45 10 72 14 47 6 51 9 78 57
16 28 33 73 38 100 9 48 4 144 -8 144 -3 0 -28 -13 -56 -29z m15 -87 c0 -15
-56 -116 -73 -131 -24 -22 -22 -16 23 70 30 57 50 82 50 61z"/>
<path d="M1380 1600 c-7 -24 -10 -76 -8 -116 2 -56 9 -79 30 -111 30 -45 88
-78 157 -89 l44 -7 -8 49 c-14 98 -43 153 -125 238 l-78 81 -12 -45z m99 -154
c33 -59 46 -96 34 -96 -5 0 -22 27 -38 60 -16 34 -35 66 -42 72 -7 6 -13 17
-13 25 0 25 26 -2 59 -61z"/>
<path d="M2524 1568 c-38 -41 -79 -94 -91 -118 -23 -49 -48 -158 -39 -167 11
-11 114 18 147 40 65 44 93 130 77 239 -6 34 -13 67 -17 71 -4 4 -39 -25 -77
-65z m11 -123 c-19 -32 -37 -67 -41 -77 -5 -16 -24 -26 -24 -13 0 10 52 110
73 139 35 50 29 13 -8 -49z"/>
<path d="M1564 1526 c-4 -16 3 -48 19 -88 14 -35 28 -83 32 -108 4 -25 17 -56
29 -69 25 -28 115 -73 129 -64 14 9 2 155 -16 190 -18 34 -72 85 -140 131
l-46 33 -7 -25z m114 -108 c37 -56 74 -145 69 -166 -3 -15 -5 -14 -12 3 -28
73 -70 157 -86 171 -21 18 -25 34 -9 34 5 0 22 -19 38 -42z"/>
<path d="M2343 1495 c-89 -68 -109 -93 -122 -156 -13 -59 -14 -136 -3 -143 10
-6 99 36 128 61 14 12 25 40 34 83 6 36 20 85 31 109 20 45 25 86 11 95 -4 2
-40 -20 -79 -49z m17 -40 c0 -3 -13 -23 -29 -45 -16 -22 -39 -66 -51 -97 -26
-66 -40 -86 -40 -58 0 23 51 134 81 176 18 26 39 38 39 24z"/>
<path d="M760 1528 c0 -18 78 -114 116 -143 18 -14 52 -34 73 -44 l40 -17 73
35 73 35 -50 34 c-27 19 -61 47 -75 63 -23 26 -33 29 -129 39 -127 12 -121 12
-121 -2z m226 -114 c48 -7 70 -24 32 -24 -40 0 -92 19 -141 50 -67 42 -59 56
9 15 31 -19 76 -37 100 -41z"/>
<path d="M3160 1534 c-8 -1 -46 -6 -84 -9 -61 -6 -72 -11 -100 -40 -17 -18
-52 -46 -77 -62 l-45 -28 73 -36 74 -35 40 17 c59 27 106 66 155 130 24 32 44
60 44 63 0 6 -53 6 -80 0z m-12 -73 c-59 -46 -188 -90 -188 -63 0 5 20 13 44
16 24 4 67 22 97 40 56 34 87 38 47 7z"/>
<path d="M1123 1365 c-49 -15 -133 -62 -133 -74 0 -13 145 -49 225 -56 75 -7
160 4 221 30 l37 15 -39 35 c-21 19 -61 41 -88 50 -60 18 -166 18 -223 0z
m170 -42 c108 -10 77 -21 -58 -19 -69 0 -125 4 -125 8 0 16 83 21 183 11z"/>
<path d="M2660 1371 c-36 -12 -80 -37 -115 -65 l-29 -25 38 -16 c99 -42 216
-42 375 -3 l84 21 -24 20 c-56 47 -131 72 -219 74 -47 1 -96 -1 -110 -6z m219
-56 c7 -7 -35 -10 -120 -11 -71 -1 -129 2 -129 7 0 18 231 22 249 4z"/>
<path d="M1455 1254 c-22 -13 -73 -29 -113 -35 -65 -11 -76 -16 -99 -46 -31
-41 -24 -49 47 -58 25 -3 53 -8 63 -10 11 -2 44 0 74 5 47 8 63 17 114 65 33
30 67 55 75 55 35 0 4 25 -38 32 -26 3 -54 8 -65 11 -10 3 -36 -6 -58 -19z
m55 -45 c-26 -20 -139 -59 -171 -59 -36 0 -19 18 24 24 24 4 70 19 103 35 64
31 83 31 44 0z"/>
<path d="M2479 1275 c-3 -2 -29 -8 -59 -12 -57 -9 -76 -27 -38 -36 13 -4 46
-29 74 -57 44 -44 58 -52 105 -59 56 -9 187 3 203 19 5 5 -2 23 -17 43 -23 30
-34 35 -99 46 -40 6 -93 23 -117 36 -48 28 -46 27 -52 20z m44 -65 c32 -16 78
-32 102 -36 25 -3 48 -11 52 -17 4 -7 -10 -8 -43 -3 -54 7 -174 59 -174 75 0
14 -4 15 63 -19z"/>
<path d="M1589 1192 c-24 -16 -62 -54 -84 -86 -48 -70 -40 -80 55 -72 81 7
162 45 189 90 25 40 26 56 6 56 -9 0 -33 9 -55 20 -51 26 -58 25 -111 -8z m76
-62 c-21 -23 -103 -62 -118 -57 -7 2 11 15 38 29 28 14 59 36 70 48 11 13 21
17 23 10 2 -6 -4 -20 -13 -30z"/>
<path d="M2280 1195 c-62 -26 -66 -41 -22 -89 37 -40 100 -66 174 -72 92 -7
100 2 55 69 -40 61 -88 103 -127 111 -14 3 -48 -5 -80 -19z m134 -96 c34 -12
49 -29 26 -29 -18 0 -89 39 -110 60 -34 34 -22 44 14 12 19 -17 51 -36 70 -43z"/>
<path d="M1794 1199 c-2 -4 8 -10 23 -13 79 -16 103 -17 120 -7 16 9 16 10 -7
11 -14 1 -49 5 -78 9 -29 4 -55 4 -58 0z"/>
<path d="M2129 1199 c-84 -12 -187 -37 -234 -58 -56 -25 -159 -91 -152 -97 3
-3 22 -10 43 -14 34 -8 41 -5 103 42 82 63 129 85 228 104 42 8 78 16 81 18 9
10 -18 12 -69 5z"/>
<path d="M2048 1143 c-21 -5 -23 -19 -5 -26 6 -2 37 -25 68 -50 52 -43 58 -45
93 -37 21 4 40 10 42 13 10 10 -152 109 -173 106 -4 -1 -16 -3 -25 -6z"/>
<path d="M1763 858 c-28 -14 -30 -32 -3 -23 19 6 20 2 20 -74 0 -47 4 -81 10
-81 6 0 10 38 10 95 0 52 -3 95 -7 94 -5 0 -18 -5 -30 -11z"/>
<path d="M1890 850 c-41 -41 -13 -106 42 -98 40 6 34 -22 -9 -42 -37 -17 -42
-30 -12 -30 11 0 34 13 50 29 23 24 29 38 29 73 0 78 -53 115 -100 68z m72
-25 c8 -19 8 -28 -2 -40 -30 -36 -82 -3 -62 40 7 15 20 25 32 25 12 0 25 -10
32 -25z"/>
<path d="M2020 860 c0 -5 18 -10 40 -10 22 0 40 -5 40 -10 0 -6 -16 -42 -35
-80 -38 -76 -40 -80 -25 -80 11 0 90 152 90 175 0 12 -12 15 -55 15 -30 0 -55
-4 -55 -10z"/>
<path d="M2203 857 c-25 -11 -32 -33 -8 -24 11 5 15 -8 17 -70 2 -50 7 -78 16
-81 9 -3 12 19 12 87 0 49 -3 92 -7 94 -5 3 -18 0 -30 -6z"/>
<path d="M508 2972 c31 -42 39 -46 51 -23 15 27 14 28 -13 35 -13 3 -32 9 -42
13 -15 6 -15 2 4 -25z"/>
<path d="M3717 1903 c-4 -3 -7 -15 -7 -25 0 -16 5 -18 38 -12 55 10 60 16 21
30 -42 15 -44 16 -52 7z"/>
<path d="M3289 933 c26 -48 38 -58 55 -44 23 19 20 25 -19 44 -45 21 -48 21
-36 0z"/>
<path d="M905 698 c-37 -29 -59 -82 -45 -108 28 -52 85 -44 127 19 28 41 29
72 5 94 -25 23 -54 21 -87 -5z"/>
<path d="M2678 509 c-29 -16 -24 -90 8 -128 59 -71 145 -10 103 72 -31 60 -71
80 -111 56z"/>
</g>
</svg>
